<?xml version="1.0" encoding="utf-8"?>
<!-- Generator: Adobe Illustrator 21.0.1, SVG Export Plug-In . SVG Version: 6.00 Build 0)  -->
<svg version="1.1" id="Calque_1" xmlns="http://www.w3.org/2000/svg" xmlns:xlink="http://www.w3.org/1999/xlink" x="0px" y="0px"
	 viewBox="0 0 432 432" style="enable-background:new 0 0 432 432;" xml:space="preserve">
<style type="text/css">
	.st0{fill:#C77B32;}
	.st1{fill:#534741;}
	.st2{fill:#0071BC;}
	.st3{fill:#29ABE2;}
	.st4{fill:#65C8D0;}
	.st5{fill:#838BC5;}
	.st6{fill:#C96087;}
	.st7{fill:#BA9BC9;}
	.st8{fill:#736357;}
	.st9{fill:#FFB3CC;}
	.st10{fill:#231F20;}
</style>
<g>
	<g>
		<path d="M250.7,345.6c-0.9,2.3-1.7,4.4-2.5,6.5c-1.4,3.7-2.9,7.4-4.4,11.1c-0.4,1.1-1.1,2.1-1.9,3c-1.2,1.2-2.8,1.4-4.2,0.4
			c-0.9-0.6-1.5-1.5-2-2.4c-1.2-2.2-2-4.6-2.3-7.2c-0.4-3.1-0.4-6.1-0.3-9.2c0.1-1.9,0.1-3.9,0.2-5.8c0-0.1,0-0.2-0.1-0.3
			c-0.5,0-0.8,0.4-1.1,0.6c-2.1,1.6-3.9,3.6-5.6,5.6c-1.6,1.8-3.2,3.6-4.8,5.3c-0.5,0.6-1.2,1-1.9,1.5c-2,1.3-4.2,1.1-6.1-0.4
			c-1.6-1.2-2.5-2.9-3.1-4.7c-1.5-4-2-8.2-1.9-12.5c0-1.6,0.2-3.1,0.3-4.7c0-0.3,0-0.6,0.1-1c-2.2,0.3-4.3,0.5-6.6,0.8
			c0,0.7-0.1,1.4-0.1,2.2c-0.3,4.7-1.1,9.3-2.5,13.8c-1.1,3.3-2.4,6.6-3.9,9.7c-0.7,1.5-1.6,2.8-2.6,4c-0.6,0.7-1.3,1.4-2.2,1.8
			c-0.9,0.4-1.9,0.3-2.8,0c-1.5-0.6-2.6-1.8-3.5-3.1c-1.5-2.2-2.4-4.6-3.2-7.1c-0.8-2.7-1.2-5.4-1.6-8.1c-0.3-2.2-0.4-4.3-0.5-6.5
			c-0.1-1.8-0.2-3.6-0.2-5.4c-0.1-2.6-0.1-5.1-0.2-7.7c0-0.3-0.1-0.6-0.1-1.1c-0.6,0.7-1,1.2-1.4,1.7c-1.6,2.2-2.7,4.7-3.8,7.2
			c-2.2,5.3-3.6,10.8-4.8,16.4c-0.3,1.4-0.6,2.8-1,4.2c-0.2,0.8-0.6,1.6-1.1,2.2c-0.9,1.3-2.5,1.6-3.8,0.7c-0.7-0.4-1.3-1-1.8-1.6
			c-1.9-2.3-3.1-5-4.2-7.7c-1.6-4-2.6-8.2-3.5-12.5c-0.6-2.6-1-5.2-1.6-7.8c-0.2-1.1-0.5-2.1-0.8-3.2c0-0.2-0.2-0.3-0.3-0.5
			c-0.8,0.3-1.4,0.9-1.9,1.5c-1.2,1.7-2.2,3.5-2.6,5.6c-0.1,0.6-0.5,0.9-0.9,0.9c-0.5-0.1-0.8-0.5-0.7-1.1c0-0.6,0.1-1.3,0.3-1.9
			c0.6-2.2,1.6-4.2,2.9-6c0.7-1,1.6-1.9,2.9-2.3c1.3-0.4,2.5-0.1,3.4,0.8c1,0.9,1.8,2.1,2.3,3.4c0.7,2,1.4,4.1,2,6.2
			c0.7,2.6,1.3,5.1,2,7.7c0.6,2.3,1.2,4.5,1.8,6.8c0.7,2.4,1.6,4.8,2.4,7.2c0.1,0.4,0.4,0.7,0.6,1.1c0.5-0.3,0.7-0.8,0.9-1.3
			c0.4-1.3,0.8-2.6,1.2-3.9c1.5-6.4,3.7-12.7,6.6-18.6c1.2-2.5,2.7-4.9,4.1-7.3c0.1-0.2,0.2-0.3,0.3-0.5c1.6-1.9,3.5-1.1,4.5,0.3
			c0.8,1.1,1.2,2.3,1.5,3.6c0.5,2.4,0.6,4.8,0.8,7.3c0.2,2.9,0.4,5.9,0.6,8.8c0.2,3.1,0.8,6.1,1.4,9.2c0.5,2.6,1,5.3,2,7.8
			c0.2,0.6,0.5,1.2,1.1,1.7c0.9-0.3,1.5-0.9,2.1-1.6c1.5-1.8,2.4-3.8,3.3-5.9c1.5-3.6,2.7-7.3,3.5-11.2c0.7-3.4,1.3-6.9,1.4-10.4
			c0-0.1,0-0.3,0-0.4c-0.4-0.2-0.8-0.3-1.1-0.5c-2.5-1.6-4.4-3.6-5-6.5c-0.3-1.2-0.1-2.4,0.5-3.5c1.2-2.1,3.4-2.2,4.9-0.4
			c0.9,1.1,1.4,2.4,1.7,3.8c0.3,1.7,0.5,3.3,0.7,5c0,0.2,0,0.4,0.1,0.8c0.6,0,1.1,0.1,1.6,0.1c1.6-0.2,3.1-0.4,4.7-0.6
			c0.5-0.1,0.7-0.3,0.8-0.8c0.3-1,0.6-2,1-2.9c1-2.5,2.4-4.7,4.6-6.3c2.7-2,5.5-2,8.4-0.5c2.9,1.5,4.8,4,6.2,6.9
			c0.9,1.9,1.3,3.9,1,6c0,0.2,0,0.3-0.1,0.5c-0.1,0.4-0.3,0.6-0.7,0.6c-0.4,0-0.7-0.2-0.8-0.6c-0.1-0.3-0.1-0.7-0.1-1
			c-0.1-1.2-0.5-2.4-1.1-3.5c-0.9-1.6-1.9-3.1-3.3-4.2c-0.7-0.6-1.5-1.1-2.4-1.4c-1.9-0.7-3.3-0.2-4.5,1.4c-1.1,1.5-1.7,3.2-2.2,5
			c-0.7,2.6-1,5.4-1,8.1c0,2,0,4.1,0.2,6.1c0.1,2.3,0.4,4.5,1,6.7c0.1,0.5,0.3,0.9,0.5,1.3c0.7,1.4,1.6,1.8,3.1,1.1
			c1.3-0.6,2.5-1.5,3.5-2.6c3.2-3.3,6.4-6.7,9.6-10c0.3-0.3,0.6-0.7,0.9-1c1.8-1.6,3.6-0.6,4.3,0.7c0.7,1.2,1.1,2.5,1.2,3.8
			c0.1,2.1,0.2,4.2,0.2,6.3c0.1,3.5,0.3,7,0.7,10.5c0.1,1,0.3,2.1,0.4,3.1c0,0.2,0.1,0.4,0.2,0.7c0.4-0.4,0.7-0.7,0.9-1
			c0.8-1.3,1.5-2.6,2.2-4c2.4-5.3,4.5-10.8,6.6-16.3c0.2-0.5,0.2-0.9,0.2-1.4c-0.4-3.6-0.8-7.2-1.1-10.8c-0.2-1.7,0-3.4,0.5-5
			c0.1-0.4,0.3-0.8,0.6-1.2c0.7-1.1,2.2-1.1,2.9,0c0.4,0.7,0.8,1.5,0.9,2.3c0.5,2.6,0.8,5.3,1.2,8c0.6,3.8,1.1,7.5,1.7,11.3
			c0.7,3.8,1.5,7.7,2.3,11.5c0.2,1,0.6,2,1.3,2.9c0.7-0.1,1.1-0.4,1.4-0.9c0.9-1.2,1.8-2.4,2.5-3.7c2.5-4.6,4.5-9.5,6.2-14.5
			c0.2-0.5,0.4-1.1,0.5-1.6c0-0.1-0.1-0.2-0.1-0.2c-2.4-2.3-3.5-5.2-4.3-8.3c-0.6-2.8-0.8-5.6-0.1-8.4c0.3-1.3,0.9-2.5,1.7-3.5
			c0.5-0.6,1.1-1,1.9-1.1c1,0,1.7,0.4,2.2,1.1c0.7,0.8,1.2,1.8,1.4,2.9c0.3,1.4,0.6,2.9,0.8,4.3c0.3,3.5-0.3,7-1.2,10.4
			c-0.1,0.4-0.2,0.8-0.3,1.2c0,0,0,0.1,0,0.2c1.3,1,2.9,1.5,4.6,1.1c0.8-0.1,1.6-0.4,2.3-0.8c1.5-0.8,2.9-1.7,4.4-2.6
			c0.4-0.3,0.6-0.6,0.6-1.1c0.1-1.6,0.3-3.3,0.5-4.9c0.3-2.6,0.9-5.2,1.6-7.8c0.6-2,1.4-4,2.6-5.7c0.9-1.4,2-2.6,3.5-3.4
			c0.6-0.3,1.2-0.6,1.9-0.8c1.4-0.4,2.7-0.1,3.7,0.9c1.5,1.4,2.6,3.1,3.2,5.1c0.7,2.1,1,4.2,0.7,6.4c-0.5,3.7-2.6,6.2-6,7.6
			c-1.7,0.7-3.5,1.1-5.5,0.9c-0.1,0.2-0.1,0.4-0.2,0.6c-0.2,3.1-0.2,6.2,0.1,9.3c0.3,2.4,0.7,4.8,1.3,7.2c0.5,2.2,1.2,4.4,2.4,6.5
			c1.3,2.3,3.4,3.1,5.9,2.1c2.2-0.9,4.1-2.3,5.6-4.1c2.3-2.7,4-5.8,5.1-9.3c0.8-2.3,0.4-4.5-0.9-6.5c-0.2-0.4-0.4-0.7-1-0.6
			c-0.1,0-0.5-0.2-0.5-0.4c0-0.2,0.1-0.5,0.3-0.6c0.4-0.3,0.8-0.3,1.2,0c0.3,0.2,0.6,0.5,0.8,0.8c1.5,2.1,2,4.5,1.4,7
			c-0.6,2.6-1.7,5-3,7.4c-1.6,3-3.8,5.4-6.5,7.3c-1.6,1.1-3.4,1.8-5.4,1.9c-2,0.1-3.7-0.5-5.3-1.7c-2.6-2-4.4-4.7-5.6-7.8
			c-0.6-1.7-1.2-3.5-1.5-5.4c-0.4-2.4-0.7-4.9-0.7-7.3c0-0.7-0.1-1.4-0.1-2.2c-0.3,0.2-0.6,0.4-0.9,0.5c-1.2,0.7-2.4,1.6-3.7,2.2
			c-2.4,1.3-5,1.5-7.6,0.4c-0.1,0-0.2-0.1-0.3-0.1c-0.1,0.2-0.2,0.3-0.2,0.5c-1.8,5.9-4.4,11.5-7.4,16.9c-0.6,1.1-1.4,2.1-2.2,3.1
			c-0.2,0.3-0.6,0.6-0.9,0.8c-1.2,0.8-2.4,0.8-3.6,0c-0.5-0.4-1-0.9-1.5-1.4c-1.7-2.1-3-4.4-3.9-6.9c-0.8-2.4-1.5-4.8-2-7.2
			C250.9,346.1,250.8,346,250.7,345.6z M291.4,331.1c2.1-0.3,3.9-0.6,5.7-1.3c2.1-1,3.6-2.5,4.1-4.9c0.4-1.6,0.3-3.3,0-4.9
			c-0.4-1.9-1.3-3.5-2.8-4.7c-0.9-0.8-1.4-0.7-2.2,0.2c-0.5,0.6-0.9,1.2-1.3,1.9c-1,1.9-1.6,4-2.1,6.1
			C292.3,326,291.9,328.5,291.4,331.1z M271.9,336.4c0.1-0.3,0.2-0.4,0.2-0.5c0.8-3,1.3-6.1,1.1-9.3c-0.1-1.9-0.4-3.7-1.2-5.4
			c-0.2-0.4-0.5-0.8-0.8-1.2c-0.4-0.4-0.7-0.4-0.9,0.1c-0.3,0.6-0.6,1.3-0.7,2c-0.7,3.8-0.3,7.6,0.9,11.3
			C270.8,334.4,271.2,335.4,271.9,336.4z M200.5,329.6c0-0.1,0.1-0.2,0.1-0.3c0-2-0.3-4-1.1-5.9c-0.2-0.6-0.5-1.1-0.9-1.6
			c-0.7-0.9-1.5-0.8-1.8,0.3c-0.2,0.5-0.2,1.1-0.2,1.7c0.1,2,1.3,3.5,2.6,4.9C199.5,329.2,200,329.5,200.5,329.6z"/>
		<path d="M205.5,299.4c-1.3,2.7-2.5,5.2-3.7,7.7c-0.6,1.3-1.2,2.7-1.9,4c-0.1,0.3-0.3,0.6-0.5,0.8c-0.3,0.4-0.7,0.5-1.1,0.4
			c-0.4-0.1-0.7-0.5-0.7-0.9c0-0.3,0.1-0.7,0.2-1c1.9-5,3.8-10,6.3-14.7c0.2-0.4,0.3-0.9,0.2-1.4c-0.3-1.5-0.6-3-0.8-4.5
			c-0.4-2.9-0.8-5.8-1.2-8.7c-0.1-0.9-0.2-1.7-0.4-2.6c-0.3-1.3-1.1-1.6-2.2-0.9c-0.8,0.5-1.6,1.2-2.3,1.9c-1.7,1.8-3,4-4.2,6.2
			c-1.9,3.5-3.7,7-5.6,10.4c-0.9,1.7-1.8,3.4-3.2,4.8c-1.8,2-4,3.2-6.8,3.1c-2-0.1-3.7-0.9-5.3-2.1c-3.2-2.4-5.1-5.6-6.4-9.2
			c-0.2-0.4-0.3-0.9-0.5-1.5c-0.1,0.4-0.2,0.6-0.3,0.8c-1.6,4.8-3.1,9.6-4.8,14.3c-0.6,1.7-1.4,3.2-2.1,4.8
			c-0.3,0.6-0.7,1.1-1.2,1.6c-1,1-2.1,1.1-3.3,0.4c-0.9-0.5-1.6-1.2-2.2-2.1c-1-1.6-1.7-3.2-2-5.1c-0.2-1.1-0.5-2.2-0.7-3.4
			c-0.6-3.6-0.6-7.2-0.5-10.8c0-4.3,0-8.6-0.1-13c-0.1-2.6-0.4-5.1-0.9-7.6c-0.1-0.3-0.2-0.7-0.4-1c-0.4-0.8-1.1-1.1-1.9-0.9
			c-1,0.2-1.9,0.6-2.7,1.2c-2,1.4-3.6,3.2-5,5.1c-3.6,5-5.3,10.7-5.6,16.8c0,0.5,0.1,1.1,0.1,1.6c0.3,2,0.6,4,0.8,6
			c0,0.3,0,0.7,0,1.1c0,0.7-0.3,1.3-1.1,1.6c-0.7,0.3-1.3,0-1.8-0.6c-0.4-0.5-0.8-1-1-1.6c-1.4-3.1-2.6-6.3-3.4-9.6
			c-0.9-3.7-1.7-7.4-2.5-11c-0.7-3.2-1.5-6.5-2.3-9.7c-0.3-1.1-0.6-2.1-1-3.1c-0.4-1.1-0.9-1.2-1.7-0.4c-1.3,1.2-2,2.8-2.5,4.5
			c-0.1,0.5-0.2,1-0.2,1.5c-0.1,0.4-0.2,0.8-0.7,0.9c-0.4,0.1-0.8-0.2-0.9-0.8c-0.1-0.6-0.1-1.2,0-1.8c0.5-2.4,1.6-4.5,3-6.3
			c0.8-1,1.7-1.6,3-1.7c1.9-0.1,3.2,0.8,4.3,2.1c1,1.2,1.5,2.6,2.1,4c0.7,1.8,1.2,3.6,1.6,5.4c0.6,2.6,1.3,5.2,1.9,7.8
			c0.4,1.8,0.8,3.6,1.2,5.6c0.1-0.4,0.2-0.6,0.3-0.8c1.5-6.8,4.7-12.6,9.8-17.4c1-0.9,2-1.7,3.2-2.3c0.7-0.4,1.5-0.6,2.3-0.7
			c1.9-0.3,3.3,0.7,4.5,2c1.4,1.6,2.1,3.5,2.6,5.5c0.9,3.9,1.1,7.8,1.1,11.7c0,3.3,0,6.5,0,9.8c0,2.9-0.1,5.8,0,8.7
			c0,2,0.3,4,0.5,5.9c0.1,0.5,0.3,0.9,0.5,1.4c0.8-0.1,1.1-0.6,1.4-1.1c0.7-1.4,1.6-2.7,2.1-4.2c1.9-5.5,3.7-11,5.6-16.4
			c0.3-1,0.4-1.9,0.2-3c-0.6-4.1-0.5-8.1,0.9-12c0.8-2.3,2-4.5,3.8-6.2c1.5-1.4,3.3-2.4,5.5-2.4c2.2,0,4,0.9,5.3,2.6
			c1.6,2,2.4,4.2,2.3,6.7c-0.1,1.9-0.9,3.7-2.1,5.2c-1.9,2.4-4.3,4-7,5.2c-0.9,0.4-1.7,0.7-2.7,1c0.2,0.7,0.3,1.4,0.6,2.1
			c1.1,3.6,2.9,6.9,5.6,9.6c0.4,0.4,0.9,0.7,1.4,1c1,0.6,2.1,0.6,3.1,0c1-0.5,1.8-1.1,2.5-1.9c1.7-1.9,2.9-4.2,4.2-6.4
			c2-3.3,3.9-6.7,6-10c1.2-1.9,2.6-3.7,4.2-5.2c0.6-0.5,1.3-1,2.1-1.3c1.8-0.7,3.4,0,4.7,1.3c0.8,0.8,1.3,1.7,1.7,2.7
			c0.9,2.2,1.6,4.4,1.9,6.7c0,0.2,0.1,0.4,0.2,0.7c0.3-0.4,0.5-0.7,0.6-0.9c1.2-1.9,2.4-3.8,3.7-5.7c0.2-0.3,0.5-0.7,0.8-1
			c0.5-0.5,0.9-0.6,1.2-0.4c0.4,0.2,0.5,0.6,0.2,1.3c-0.8,1.8-1.7,3.7-2.6,5.5c-0.9,1.7-1.8,3.5-2.7,5.2c-0.2,0.4-0.3,0.8-0.2,1.3
			c0.6,3,1.1,6,2.1,9c0.8,2.6,1.8,5.2,3.4,7.5c0.4,0.6,0.8,1.1,1.3,1.6c0.9,0.9,2.1,1.1,3.3,0.6c1.4-0.6,2.6-1.6,3.6-2.7
			c1.7-1.9,3-4.1,4-6.4c1.4-3,2.7-6.2,4-9.3c0.1-0.2,0.2-0.5,0.2-0.7c0-1.4,0-2.9,0-4.3c0-1.2,0-2.4,0-3.6c0-0.2,0-0.4,0-0.7
			c-1.1-0.1-2.2,0.2-3.3,0.4c-2.5,0.6-4.7,1.5-6.8,3c-0.1,0.1-0.2,0.1-0.2,0.2c-0.4,0.3-0.9,0.2-1.1-0.1c-0.3-0.4-0.3-0.8-0.1-1.1
			c0.3-0.4,0.7-0.8,1.1-1.1c1.1-0.7,2.3-1.3,3.5-1.8c2-0.8,4-1.2,6.2-1.4c0.3,0,0.5-0.1,0.8-0.1c0.1-1.8,0.2-3.5,0.3-5.1
			c0.1-2.4,0.4-4.7,1.1-7c0.2-0.5,0.4-1,0.8-1.4c0.7-0.9,1.8-0.8,2.6,0c0.5,0.5,0.8,1.2,0.8,1.9c0.1,2.1,0.3,4.3,0.3,6.4
			c0.1,1.7,0,3.3,0,5c0.2,0.1,0.2,0.1,0.3,0.1c3.7,0,7.4,0,11-0.9c2.9-0.7,5.7-1.6,8.3-3c0.3-0.1,0.5-0.3,0.8-0.4
			c0.7-0.4,1.3-0.9,1.4-1.7c0.1-0.4,0.4-0.6,0.8-0.5c0.4,0.1,0.5,0.4,0.5,0.8c0,0.9-0.4,1.6-1.1,2.2c-0.7,0.6-1.5,1.1-2.3,1.5
			c-3.3,1.7-6.8,2.9-10.5,3.6c-2.6,0.5-5.2,0.5-7.8,0.5c-0.4,0-0.8,0-1.3,0c0,0.8-0.1,1.5-0.1,2.2c0,2.8-0.1,5.7-0.1,8.5
			c0,1.1,0,2.3,0,3.4c0,3.5,0.2,7,0.7,10.5c0.4,3,0.8,6,1.8,8.8c0.2,0.8,0.6,1.5,1,2.2c0.9,1.4,2,1.5,3.1,0.3c0.9-1,1.8-2,2.4-3.2
			c1.6-2.8,3.1-5.6,4.5-8.5c1.6-3.2,3-6.4,4.5-9.6c0.1-0.2,0.2-0.4,0.3-0.6c0.2-0.3,0.5-0.5,0.8-0.3c0.4,0.2,0.4,0.5,0.3,0.9
			c0,0.1-0.1,0.2-0.1,0.3c-2.6,6.2-5.4,12.4-8.4,18.4c-0.7,1.3-1.5,2.5-2.4,3.7c-0.6,0.8-1.3,1.4-2.3,1.7c-1.2,0.4-2.3,0.3-3.4-0.3
			c-1.8-0.9-2.9-2.5-3.8-4.2c-1.1-2.1-1.9-4.4-2.5-6.7c-0.7-2.6-1.3-5.2-1.6-7.8c-0.2-1.7-0.4-3.5-0.5-5.2c0-0.3-0.1-0.7-0.3-1.1
			c-0.1,0.3-0.3,0.6-0.4,0.9c-0.8,1.9-1.5,3.9-2.4,5.8c-1.2,2.5-2.6,4.9-4.2,7.1c-1.1,1.5-2.5,2.6-4.2,3.4c-1.7,0.8-3.5,0.8-5.2,0.2
			c-3.3-1.1-5.4-3.6-7-6.5c-1.2-2-2-4.2-2.5-6.5C205.7,299.9,205.6,299.8,205.5,299.4z M170.6,284.7c0.2,0,0.4,0,0.6-0.1
			c1.3-0.5,2.6-0.9,3.9-1.5c1.9-0.9,3.4-2.2,4.5-3.9c2-2.9,1.6-6.4-1-8.6c-1.8-1.5-3.9-1.3-5.3,0.6c-0.9,1.1-1.5,2.4-1.9,3.8
			c-0.7,2.4-1,4.9-1.1,7.4C170.4,283.2,170.5,283.9,170.6,284.7z"/>
		<path d="M258.3,177.6c1.6-1.5,3.2-2.9,4.6-4.3c0.2-0.2,0.3-0.8,0.3-1.1c0.2-1.3,0.4-2.6,0.7-3.9c0.3-1.2,0.8-2.3,1.8-3.1
			c0.6-0.6,1.4-0.8,2.2-0.5c0.9,0.3,1.4,0.9,1.4,1.9c0.1,0.9,0.1,1.9,0,2.8c-0.4,3.5-0.4,7,0.1,10.5c0.3,2,0.8,4,1.8,5.8
			c1.5,2.7,4.8,3.8,7.9,2.1c1.4-0.7,2.6-1.8,3.6-3c3.3-3.9,4.8-8.4,4.8-13.5c0-0.2-0.1-0.4-0.1-0.7c-0.4,0.1-0.7,0.2-1,0.3
			c-1.1,0.2-2.2,0.6-3.4,0.6c-3.2,0.1-5.7-2.3-6.3-5.1c-0.6-2.7,0.2-4.9,2.1-6.8c1.4-1.4,3.3-1.6,5-0.6c1.9,1.1,3.2,2.9,4,4.9
			c0.6,1.4,1,2.8,1.5,4.3c1-0.3,1.9-0.9,2.8-1.4c1.4-0.9,2.9-1.8,4-3.1c1.4-1.5,3.3-1.1,4.5,0.4c0.5,0.7,0.9,1.5,1,2.4
			c0.1,1.5,0.2,3.1,0.2,4.6c0,3.6-0.1,7.2,0.2,10.7c0.2,3.1,1.1,6,2.2,8.8c0.1,0.2,0.3,0.4,0.4,0.6c0.3,0.4,0.6,0.4,1,0.2
			c0.5-0.3,1-0.6,1.4-1c1.6-1.4,2.8-3.1,3.9-5c2-3.6,4-7.2,6-10.8c1.3-2.4,2.5-4.8,3.6-7.2c0.5-1,0.9-2.1,1.3-3.1
			c0.4-0.9,1.1-1.3,1.8-1.3c0.8,0.1,1.5,0.6,1.7,1.6c0.2,1,0.3,2,0.2,3c-0.3,3.4-0.7,6.9-1.2,10.3c-0.4,3.2-0.9,6.5-0.7,9.8
			c0.1,1,0.3,2,0.7,2.9c0.4,1.1,1.3,1.5,2.4,1.5c1.2-0.1,2.3-0.6,3.4-1.3c1.4-1,2.5-2.4,3.3-3.9c1-1.9,2-3.9,3-5.9
			c0.1-0.1,0.1-0.3,0.2-0.4c0.2-0.1,0.5-0.3,0.6-0.2c0.2,0.1,0.4,0.4,0.4,0.6c-0.1,0.5-0.2,1.1-0.4,1.6c-1.2,2.8-2.6,5.6-4.3,8.1
			c-1.7,2.4-4.1,3.8-7,4.2c-2.1,0.3-3.7-0.7-5.1-2.1c-1.4-1.4-1.9-3.2-2.3-5.1c-0.4-2.1-0.4-4.2-0.3-6.3c0.1-2.5,0.3-4.9,0.8-7.3
			c0-0.1,0-0.3-0.1-0.5c-0.2,0.3-0.3,0.5-0.5,0.8c-1.8,3.4-3.6,6.9-5.3,10.3c-1.7,3.2-3.7,6.2-6.3,8.8c-0.4,0.4-0.9,0.8-1.4,1.1
			c-1.4,0.8-2.9,0.6-4.3-0.2c-2.6-1.6-3.8-4.2-4.5-7c-1-4.4-1.2-8.9-1-13.4c0.1-2.1,0.1-4.2,0.2-6.3c0-0.2,0-0.4,0-0.8
			c-2.3,0.8-4.3,2-6.5,2.9c0,1.5,0.1,3,0,4.5c-0.4,5.2-2,9.9-5.5,13.8c-1.5,1.7-3.2,3-5.3,3.9c-2.8,1.2-5.6,1.2-8.4,0
			c-2.3-1-3.9-2.8-5-5.1c-0.7-1.4-1-3-1.4-4.5c-0.6-2.5-0.6-5-0.8-7.6c-0.2,0.2-0.4,0.3-0.6,0.4c-1.1,1.1-2.3,2.2-3.4,3.2
			c-0.4,0.4-0.5,0.8-0.4,1.3c0.4,3.4,0.8,6.7,1.1,10.1c0.1,1.5,0.1,3,0.1,4.5c0,1.7,0,3.3-0.2,5c-0.2,2.7-0.7,5.3-1.8,7.8
			c-1.4,3.3-3.4,6-6.5,7.8c-1.9,1-3.8,1.6-6,1.2c-2.5-0.4-4.3-1.8-5.4-4.1c-1.2-2.6-1.2-5.2-0.6-7.9c0.9-4.1,2.9-7.8,5.2-11.3
			c2.2-3.5,4.8-6.6,7.8-9.5c0.5-0.5,0.6-1,0.5-1.7c-0.8-4.4-1.6-8.9-2.4-13.3c-0.4-2.3-1-4.6-1.5-6.9c-0.4,0.2-0.5,0.6-0.6,0.9
			c-1.4,2.9-2.8,5.8-4.3,8.7c-1.3,2.5-2.7,5-4.5,7.3c-0.8,1-1.7,1.9-2.7,2.7c-2.8,2.3-6,2.4-8.8-0.4c-1.7-1.7-2.8-3.8-3.6-6.1
			c-0.4-1.3-0.8-2.6-1-4c-0.3-2-0.6-4-0.8-6.1c-0.1-1.6-0.2-3.2-0.2-4.8c0-1.1,0.2-2.3,0.4-3.4c0.1-0.8,0.6-1.5,1.2-2.1
			c1-0.9,2.4-0.8,3.2,0.3c0.5,0.8,0.7,1.6,0.8,2.5c0.1,1.6,0.3,3.1,0.4,4.7c0.2,3.1,0.6,6.2,1.3,9.3c0.4,2.2,1,4.4,1.9,6.4
			c0.2,0.3,0.3,0.7,0.6,1c0.8,1,1.4,1.2,2.6,0.7c1-0.4,1.8-1,2.6-1.7c2-1.8,3.6-4,4.9-6.3c2.4-4.1,4.2-8.5,5.6-13
			c0.2-0.5,0.3-1.1,0.4-1.7c0.4-2.2,2.8-2.5,4.1-1.2c0.5,0.5,1,1.2,1.2,1.9c0.6,1.8,1.2,3.6,1.7,5.5c0.6,2.5,1.2,5,1.7,7.6
			c0.4,1.9,0.7,3.9,1.1,5.8C258.1,176.8,258.2,177.1,258.3,177.6z M253.1,184.7c-0.3,0.3-0.4,0.4-0.5,0.5c-3.3,3.5-6.2,7.3-8.5,11.6
			c-1.5,2.7-2.7,5.6-3.2,8.7c-0.3,1.9-0.1,3.7,0.7,5.5c0.7,1.6,1.8,2.8,3.7,3c1.4,0.1,2.6-0.5,3.7-1.4c1.8-1.5,2.7-3.6,3.4-5.7
			c0.5-1.5,0.7-3.1,1-4.7c0.4-2.7,0.7-5.5,0.5-8.2c-0.1-2.3-0.2-4.5-0.4-6.8C253.3,186.3,253.2,185.6,253.1,184.7z M287.4,169.1
			c-0.5-2.6-1.1-5.1-3-7c-0.5-0.5-1.1-0.8-1.7-1.2c-0.7-0.4-1.4-0.2-2,0.3c-0.8,0.6-1.2,1.5-1.5,2.4c-0.9,2.9,0.8,5.8,3.7,6.2
			C284.3,170,285.8,169.6,287.4,169.1z"/>
		<path d="M197.6,203.8c0.4-0.4,0.9-0.7,1.2-1.1c1-1.4,2-2.8,2.8-4.2c2.1-3.6,4.1-7.3,6.1-11c1.3-2.2,2.5-4.5,4.1-6.5
			c0.2-0.2,0.3-0.5,0.5-0.6c0.2-0.1,0.6-0.1,0.8-0.1c0.3,0.1,0.4,0.5,0.3,0.8c0,0.1-0.1,0.2-0.2,0.3c-2.4,3.7-4.4,7.7-6.5,11.5
			c-1.8,3.3-3.5,6.6-5.3,9.9c-0.5,0.8-1,1.6-1.6,2.4c-0.3,0.4-0.7,0.8-1.1,1.1c-1.2,0.9-2.4,0.7-3.6,0c-1.2-0.7-2-1.7-2.7-2.8
			c-1-1.7-1.6-3.6-1.9-5.6c-0.4-2.3-0.4-4.7-0.3-7.1c0.1-2.1,0.2-4.2,0.3-6.2c0.1-1.4,0.2-2.7,0.3-4.3c-0.5,0.4-0.8,0.6-1.1,0.8
			c-2.6,2.7-5.2,5.4-7.8,8.1c-0.9,0.9-1.8,1.9-2.8,2.8c-2.9,2.4-5.4,1.3-7.2-1.1c-1.9-2.5-2.9-5.3-3.4-8.4c-0.1-0.5-0.2-0.9-0.3-1.6
			c-0.2,0.4-0.4,0.6-0.6,0.9c-2.3,4.2-4.7,8.3-7,12.5c-1.1,2-2.5,3.8-4.3,5.2c-1.9,1.5-4,1.7-6.1,0.8c-2.8-1.1-4.8-3.2-6.4-5.7
			c-1.4-2.2-2.3-4.5-3.1-7c-0.8-2.7-1.3-5.4-1.9-8.1c0-0.1-0.1-0.2-0.1-0.4c-2.5,1.1-4.8,2.3-7.2,3.6c0.2,0.5,0.4,0.9,0.6,1.3
			c1.7,3.6,2.7,7.3,2.4,11.2c-0.2,2.6-1,5.1-2.8,7.1c-1.2,1.2-2.6,2.1-4.3,2.3c-2.7,0.4-4.7-0.8-6.2-2.9c-1.9-2.6-1.9-5.5-1.1-8.5
			c0.9-3.1,2.8-5.6,5.2-7.7c0.2-0.2,0.5-0.4,0.8-0.7c-0.6-1-1.1-1.9-1.8-2.8c-1.3-1.9-2.7-3.8-4.1-5.5c-2.6-3.1-5.3-6.1-7.9-9.2
			c-1.5-1.8-2.9-3.7-4.1-5.7c-1-1.6-1.8-3.2-2.5-4.9c-1-2.4-1.7-4.9-2-7.5c-0.2-1.9-0.2-3.8,0-5.6c0.3-2,0.8-4,1.7-5.9
			c1.3-2.6,3-4.9,5.6-6.3c3-1.6,6.1-1.3,9,0.4c2.6,1.6,4.5,3.8,5.8,6.5c2.2,4.3,3.3,8.9,3.1,13.8c0,1.1-0.3,2.3-0.5,3.4
			c-0.1,0.4-0.2,0.7-0.4,1.1c-0.2,0.4-0.6,0.7-1.2,0.6c-0.5-0.1-0.9-0.5-0.9-1.1c-0.1-0.4,0-0.8,0-1.2c0.1-2.5,0.1-5.1-0.2-7.6
			c-0.5-3.4-1.4-6.6-3.1-9.5c-1-1.7-2.4-3.2-4.3-4c-2.3-0.9-4.7-0.3-6.2,1.7c-1.3,1.6-1.9,3.5-2.3,5.5c-0.5,2.8-0.6,5.6-0.1,8.4
			c0.5,2.5,1.3,4.9,2.5,7.1c1.8,3.3,4.2,6.2,6.6,9c2.3,2.7,4.7,5.4,7,8.2c1.8,2.2,3.5,4.5,4.8,7c0.2,0.3,0.3,0.5,0.5,0.9
			c2.6-1.3,5.1-2.7,7.7-4c0-0.9-0.1-1.8-0.1-2.7c-0.1-3.4,0.1-6.7,1-10c0.6-2.1,1.5-4,3.1-5.6c0.8-0.8,1.8-1.4,3-1.7
			c1.9-0.4,3.3,0.4,4.4,1.9c1.9,2.7,2.2,5.7,1.1,8.8c-1,2.6-2.6,4.8-4.9,6.4c-1.2,0.8-1.4,1.6-1.2,3c0.4,2.7,1,5.4,1.7,8
			c0.4,1.5,1,3,1.7,4.4c0.8,1.8,1.6,3.6,2.5,5.3c0.4,0.8,1.1,1.4,1.7,2c0.7,0.7,1.6,0.7,2.5,0.3c0.5-0.3,1-0.6,1.4-1
			c1.6-1.4,2.7-3.1,3.8-4.9c2.6-4.4,5.1-8.8,7.6-13.2c0.3-0.5,0.5-1.1,0.4-1.7c-0.1-2.8,0.2-5.5,0.8-8.2c0.5-2,1.2-3.9,2.5-5.5
			c2.1-2.6,4.7-3.9,8.1-3.2c1.2,0.2,2.2,0.8,3.1,1.6c1.2,1.1,2.3,2.5,2.7,4.1c0.2,0.6,0.1,1.3,0.1,2c0,0.5-0.3,0.9-0.8,0.9
			c-0.5,0.1-0.8-0.2-1-0.5c-0.6-0.8-1.1-1.7-1.8-2.5c-0.5-0.5-1.2-0.9-1.9-1.2c-1.2-0.5-2.7,0.2-3.5,1.5c-1,1.7-1.6,3.5-1.9,5.4
			c-0.5,3.2-0.5,6.5-0.1,9.8c0.2,2.3,0.5,4.6,0.8,6.9c0.1,0.7,0.5,1.5,0.8,2.1c0.4,0.7,0.9,0.9,1.7,0.6c1-0.3,1.8-1,2.5-1.7
			c1.4-1.5,2.9-3.1,4.3-4.7c2.1-2.5,4.3-5,6.4-7.4c0.2-0.2,0.4-0.4,0.6-0.6c1.4-1.5,3.8-0.9,4.5,1.1c0.5,1.4,0.7,2.9,0.6,4.3
			c-0.2,3.5-0.4,7-0.4,10.5c0,3.3,0.2,6.7,0.8,9.9C197,202.9,197.1,203.4,197.6,203.8z M126.5,186.1c-0.9,0.9-1.8,1.6-2.5,2.4
			c-2,2.3-3.1,4.9-3.2,7.9c0,2.3,0.8,4.3,2.7,5.8c1.5,1.2,3.3,1.2,4.7,0c0.5-0.5,1-1.1,1.3-1.8c0.8-1.7,0.9-3.5,0.5-5.3
			c-0.2-1.2-0.6-2.5-1.1-3.7C128.3,189.7,127.4,188,126.5,186.1z M144.4,174.1c0.1,0,0.2,0.1,0.3,0.1c2.3-1.7,4.2-3.8,5.1-6.6
			c0.4-1.1,0.5-2.2,0.2-3.4c-0.2-0.9-0.6-1.8-1.2-2.4c-0.8-0.8-1.2-0.7-1.7,0.1c-0.3,0.4-0.5,0.8-0.7,1.3c-0.9,2-1.5,4.1-1.7,6.3
			C144.5,170.9,144.5,172.5,144.4,174.1z"/>
		<path d="M294.7,242.9c-0.2,0.4-0.3,0.6-0.4,0.9c-1.7,4.1-3.4,8.2-5.1,12.3c-0.8,1.9-1.7,3.7-2.9,5.4c-0.6,0.8-1.4,1.5-2.4,1.9
			c-1.9,0.6-3.3-0.6-4-1.9c-0.8-1.4-1-3-1.3-4.6c-0.4-2.2-0.4-4.5-0.4-6.7c0-1.3,0-2.6,0-3.9c0.1-2.4,0.3-4.7,0.4-7.1
			c0.1-1.8,0-3.5,0.1-5.3c0-0.1,0-0.3,0-0.4c-0.2-1.3-0.9-1.8-2.2-1.5c-1.6,0.3-3,1.2-4.4,2.1c-4.6,3.3-7.3,7.9-8.9,13.2
			c-0.1,0.3-0.1,0.7-0.1,1c0.1,1.7,0.2,3.4,0.2,5.1c0,0.7,0,1.4-0.3,2.1c-0.6,1.6-2.2,2-3.4,0.8c-0.5-0.5-1-1.3-1.2-2
			c-1.1-3-1.5-6.1-1.6-9.3c0-0.5-0.1-1.1-0.1-1.8c-0.3,0.4-0.4,0.5-0.5,0.7c-3.1,4.5-6.3,9-9.4,13.6c-1.2,1.7-2.7,3.2-4.5,4.4
			c-2.1,1.4-4.2,1.3-6.4-0.5c-1.6-1.3-2.6-2.9-3.4-4.7c-1.1-2.5-1.8-5.1-2.4-7.8c-0.7-3.5-1.2-7-1.4-10.6c-0.1-2.3-0.2-4.7-0.4-7
			c0-0.1,0-0.2-0.1-0.3c-0.2,0-0.5,0-0.7,0c-2.8,0.4-5.4,1.3-7.8,2.8c-0.5,0.3-0.9,0.3-1.2,0.1c-0.3-0.3-0.4-0.8,0-1.3
			c0.4-0.5,1-1,1.6-1.4c2.3-1.4,4.8-2.1,7.4-2.5c0.2,0,0.5-0.1,0.8-0.1c0-0.5,0.1-1,0.1-1.5c0.1-4.3,0.1-8.5,0.2-12.8
			c0-2.5,0.2-4.9,0.6-7.4c0.1-0.9,0.4-1.8,0.6-2.6c0.1-0.4,0.4-0.8,0.6-1.1c0.7-0.8,1.8-0.7,2.4,0.2c0.3,0.4,0.5,0.9,0.6,1.4
			c0.3,2.1,0.6,4.2,0.7,6.3c0.2,2.4,0.2,4.7,0.2,7.1c0,2.9,0,5.8,0,8.6c0,0.6,0,1.1,0,1.8c1.2,0.1,2.2,0.3,3.3,0.4
			c2.4,0.2,4.8,0.5,7.2,0.6c3.7,0.2,7.3-0.2,10.8-1.3c0.5-0.1,1-0.3,1.5-0.5c0.2-1.1,0.3-2.1,0.5-3.1c1-6.1,3.2-11.7,7.4-16.4
			c0.9-1,1.9-1.8,3.1-2.3c1.6-0.7,3.1,0.2,3.8,1.2c0.6,0.9,1,1.8,1.1,2.8c0.2,2.7-0.5,5.3-1.6,7.7c-1.4,3.1-3.6,5.6-6.4,7.7
			c-0.3,0.3-0.6,0.6-1,0.7c-0.8,0.3-0.9,1-1,1.7c-0.1,2.7-0.3,5.5-0.3,8.2c0,2.3,0,4.7,0,7c0.1,0,0.1,0,0.2,0.1
			c0.1-0.2,0.3-0.4,0.4-0.6c2.5-5.1,6.4-9,11.3-11.9c0.5-0.3,1.1-0.6,1.6-0.8c2.8-1.1,5.4,0,6.5,2.8c0.7,1.6,1,3.2,1.1,4.9
			c0.1,1.6,0.2,3.2,0.2,4.8c-0.1,3.6-0.4,7.2-0.5,10.8c-0.1,1.8-0.1,3.5-0.1,5.3c0,0.5,0.1,1,0.2,1.5c0.1,0,0.1,0.1,0.2,0.1
			c0.3-0.4,0.7-0.7,1-1.1c1-1.9,2.1-3.8,3-5.8c2.1-4.6,4.1-9.3,6.1-14c0.2-0.5,0.2-1,0.2-1.5c-0.1-2-0.1-4,0-5.9
			c0.2-2.9,0.8-5.8,1.8-8.5c0.9-2.4,2-4.5,3.9-6.3c1-0.9,2.2-1.6,3.5-1.9c2.5-0.5,4.4,0.5,5.8,2.4c2.1,2.8,2.6,6.1,1.9,9.5
			c-0.5,2.2-1.8,3.9-3.7,5.1c-2,1.3-4.2,1.9-6.6,1.9c-0.2,0-0.3,0-0.5,0c-0.1,0-0.1,0-0.2,0.1c0,1-0.1,2,0,3
			c0.1,1.4,0.4,2.8,0.6,4.2c0.4,2,0.9,3.9,1.8,5.8c0.2,0.4,0.3,0.7,0.5,1c1.4,2.5,3.6,3.2,6.2,2c2-1,3.6-2.5,4.9-4.2
			c2.2-2.9,3.9-6.2,5.4-9.5c1.1-2.4,2.1-4.9,3.2-7.4c0.1-0.2,0.2-0.5,0.3-0.7c0.2-0.3,0.5-0.5,0.8-0.3c0.4,0.1,0.6,0.4,0.5,0.8
			c-0.3,1-0.5,1.9-0.9,2.8c-1.3,3.1-2.7,6.2-4,9.3c-1.1,2.5-2.3,4.9-3.8,7.1c-1.7,2.5-3.7,4.6-6.5,5.8c-3.3,1.5-6.4,0.9-9.2-1.3
			c-1.8-1.5-3-3.5-3.8-5.7C295.6,245.6,295.1,244.3,294.7,242.9z M234.2,231.1c0,1.1,0.1,2.1,0.1,3c0.2,3.7,0.3,7.5,0.6,11.2
			c0.2,3,0.6,6,1,9c0.2,1.6,0.7,3.2,1.5,4.6c1.1,1.9,2.4,2.3,4.2,1.1c1.2-0.8,2.3-1.7,3.2-2.9c2.2-2.9,4.4-5.8,6.5-8.7
			c1.7-2.3,3.2-4.7,4.8-7c0.3-0.5,0.4-1,0.4-1.5c0-2.5,0.1-5,0.1-7.5c0-0.8,0-1.5,0-2.3c-0.1,0-0.2,0-0.2,0
			c-0.2,0.1-0.5,0.1-0.7,0.2c-4.9,1.5-10,1.9-15.1,1.4C238.5,231.5,236.5,231.3,234.2,231.1z M300.1,231.8c1.1,0.2,3.2,0,4.6-0.4
			c2.8-0.9,4.5-2.7,4.9-5.7c0.2-1.6,0-3.2-0.6-4.7c-0.4-1-1-1.8-1.9-2.5c-0.9-0.7-1.8-0.7-2.7,0c-0.2,0.2-0.5,0.3-0.6,0.6
			c-0.5,0.8-1,1.6-1.3,2.4c-0.9,2.1-1.4,4.4-1.8,6.6C300.4,229.3,300.2,230.6,300.1,231.8z M263.3,224.5c0.2-0.1,0.3,0,0.4-0.1
			c2.9-2.2,5.2-4.9,6.5-8.4c0.7-1.8,1.1-3.6,0.8-5.5c-0.1-0.6-0.3-1.1-0.6-1.6c-0.3-0.6-0.7-0.6-1.2-0.1c-0.4,0.4-0.8,0.8-1.1,1.3
			c-2.2,3.4-3.5,7.1-4.2,11C263.6,222.2,263.5,223.3,263.3,224.5z"/>
		<path d="M187,241c0.2-0.6,0.4-1,0.5-1.4c2.1-5.7,5.4-10.6,10-14.6c0.9-0.8,1.9-1.5,3.1-2c3-1.3,5.9-0.2,7.3,2.8
			c0.8,1.7,1.2,3.6,1.4,5.5c0.3,2.7,0,5.4-0.2,8.1c-0.2,1.7-0.3,3.3-0.5,5c-0.3,2.2-0.6,4.4-0.9,6.6c-0.2,1.5-0.3,2.9-0.4,4.4
			c0,0.7-0.1,1.4,0.4,2c0.7-0.1,1.2-0.6,1.6-1.1c1.3-1.6,2.6-3.2,3.8-4.9c1.3-1.8,2.6-3.7,3.9-5.6c0.2-0.3,0.4-0.5,0.6-0.7
			c0.2-0.2,0.5-0.3,0.8-0.1c0.3,0.2,0.3,0.5,0.1,0.8c-0.5,0.7-0.9,1.5-1.4,2.2c-2,2.9-4,5.9-6,8.8c-0.5,0.7-1.1,1.4-1.8,2
			c-1.4,1.3-2.8,1.3-4.1-0.1c-0.6-0.6-1-1.4-1.3-2.2c-0.9-2.4-1.3-5-1.4-7.6c-0.1-2.8,0.1-5.6,0.4-8.4c0.2-1.9,0.5-3.9,0.7-5.8
			c0.2-2.2,0.3-4.4-0.1-6.6c-0.1-0.4-0.2-0.8-0.3-1.2c-0.3-1-0.8-1.3-1.8-1.1c-0.8,0.2-1.6,0.5-2.3,0.9c-1.9,1.2-3.5,2.7-4.8,4.5
			c-3.2,4.1-5.4,8.8-6.4,13.9c-0.1,0.7-0.1,1.5,0,2.3c0,1.2,0.1,2.3,0.1,3.5c0,0.6-0.1,1.2-0.3,1.7c-0.5,1.3-2.1,1.7-3.1,0.7
			c-0.5-0.5-0.9-1.2-1.2-1.8c-0.8-1.8-1.4-3.7-1.7-5.7c-0.6-3.9-1.2-7.8-1.8-11.7c-0.2-1.4-0.5-2.8-0.8-4.2c-0.2-1-0.4-1.1-1.4-1.1
			c-0.3,0-0.5,0-0.8,0c-1.6,0.3-3.2,0.7-4.8,1c0.3,1.1,0.5,2,0.7,3c0.8,3.4,0.6,6.9-0.2,10.3c-0.5,2.2-1.2,4.3-2.3,6.2
			c-1.3,2.4-3.1,4.3-5.7,5.4c-3.4,1.5-6.7,0.9-9.7-1.1c-2.8-1.8-4.8-4.2-6.3-7.1c-2.9-5.6-3.5-11.4-2-17.4c0.6-2.3,1.5-4.6,3.1-6.4
			c1.5-1.8,3.3-3,5.7-3.2c1.9-0.2,3.9,1,4.7,2.4c0.2,0.4,0.3,0.8,0,1.2c-0.3,0.4-0.7,0.5-1.1,0.4c-0.2-0.1-0.5-0.2-0.7-0.2
			c-1.1-0.4-2.2-0.2-3.2,0.5c-1.2,0.9-2,2.2-2.5,3.5c-1.1,2.7-1.3,5.5-1.2,8.3c0.1,3.3,0.6,6.5,1.8,9.6c0.9,2.4,2.2,4.7,4.2,6.5
			c2.6,2.3,5.7,2.4,8.5,0.3c1.4-1.1,2.6-2.4,3.3-4.1c2.4-5.2,2.9-10.6,1.2-16.2c-0.1-0.4-0.3-0.7-0.4-1.1c-0.6,0.1-1.2,0.1-1.8,0.1
			c-2.3,0-4.3-0.5-5.9-2.3c-1.1-1.2-1.1-2.8-0.2-4.2c0.9-1.3,2.4-1.8,3.9-1.3c1.5,0.5,2.5,1.5,3.4,2.7c0.6,0.7,1,1.6,1.5,2.3
			c0.1,0.2,0.3,0.4,0.4,0.7c1.4-0.3,2.7-0.8,3.9-1.3c0.9-0.4,1.7-0.9,2.6-1.3c1.3-0.6,2.6-1,4-0.3c1.5,0.7,2.4,1.9,2.9,3.4
			c0.7,2,1.1,4.1,1.4,6.2c0.3,1.9,0.6,3.7,0.9,5.6C186.8,240.7,186.9,240.8,187,241z M169.1,228.7c-0.4-1.2-1.9-3-3-3.7
			c-0.3-0.2-0.6-0.4-0.9-0.5c-0.6-0.2-1.1-0.1-1.5,0.4c-0.4,0.4-0.6,0.9-0.3,1.5c0.1,0.3,0.2,0.5,0.4,0.7
			C165.3,228.6,167.1,229,169.1,228.7z"/>
	</g>
	<g>
		<path class="st4" d="M286.8,291.1c-0.4-0.9-1-1.7-1.7-2.3c-1.7-1.4-3.7-2.1-5.8-2.4c-3.1-0.4-6.3-0.1-9.9,0.3
			c-1.3,0.4-3.1,0.9-4.9,1.5c-0.8,0.2-1.3,0.7-1.8,1.4c-0.3,0.5-0.3,0.8,0,1.2c0.3,0.4,0.6,0.8,1,1.1c1.2,1,2.5,1.8,3.9,2.5
			c3.8,1.8,7.8,2.9,12,2.9c2,0,3.8-0.3,5.5-1.4C286.8,294.9,287.5,292.9,286.8,291.1z"/>
		<path class="st4" d="M263.1,284.8c0.3-0.2,0.7-0.4,1-0.6c1.7-1,3.3-2.3,4.8-3.7c1.9-1.8,4-3.4,5.7-5.3c1.6-1.8,2.8-3.8,3.5-6.1
			c0.3-1,0.3-2,0.2-3.4c-0.1-0.3-0.3-0.9-0.7-1.5c-0.7-1.2-1.9-1.8-3.2-1.4c-0.7,0.2-1.4,0.4-1.9,0.8c-2.1,1.3-3.7,3.1-5.1,5.1
			c-1.8,2.6-3.2,5.5-4.4,8.5c-0.7,1.7-1.1,3.4-1.3,5.2c-0.1,0.7,0.1,1.3,0.4,2C262.2,284.9,262.6,285.1,263.1,284.8z"/>
		<path class="st4" d="M273.1,304.6c-1-2.3-2.5-4.2-4.4-5.8c-0.7-0.6-1.5-1.2-2.5-1.6c-0.7-0.2-0.9-0.1-1.4,0.4
			c-0.7,1-0.8,2.1-0.6,3.2c0.3,1.8,0.7,3.7,1.2,5.4c0.5,1.9,1.4,3.6,2.7,5.2c0.7,0.8,1.5,1.5,2.6,1.8c1.2,0.3,2.2-0.1,2.9-1.2
			c0.1-0.2,0.2-0.5,0.3-0.7c0.5-1.3,0.3-2.6,0.1-4.3C273.8,306.5,273.5,305.6,273.1,304.6z"/>
		<path class="st4" d="M120.1,295c0.2-0.5,0.3-1,0.4-1.5c0.1-0.5-0.1-0.8-0.6-1.1c-0.7-0.4-1.4-0.5-2.2-0.4c-1.8,0.4-3.6,0.8-5,1
			c-3.4,1.3-6.3,2.5-8.8,4.4c-1.8,1.3-3.1,2.9-4,4.9c-0.4,0.9-0.5,1.9-0.4,2.9c0.2,2,1.8,3.4,3.9,3.5c2,0.1,3.8-0.5,5.5-1.4
			c3.7-2.1,6.7-4.8,9.1-8.3C118.8,297.8,119.5,296.4,120.1,295z"/>
		<path class="st4" d="M110.1,287.4c2,0.5,3.9,0.9,5.9,1c0.4,0,0.8,0.1,1.2,0c0.6,0,0.8-0.4,0.8-0.9c0-0.7-0.2-1.3-0.6-1.9
			c-1-1.5-2.2-2.8-3.6-4c-2.5-2-5.1-3.9-7.9-5.3c-2.2-1.1-4.5-1.9-6.9-2.1c-0.7-0.1-1.4,0-2.1,0.2c-1.3,0.4-2.1,1.4-2.2,2.8
			c0,0.6,0.1,1.3,0.1,1.6c0.5,1.3,1,2.1,1.7,2.9c1.7,1.7,3.8,2.8,6,3.7C105,286.4,107.6,286.8,110.1,287.4z"/>
		<path class="st4" d="M123.8,303.2c-0.3-1.1-1-2-2.1-2.5c-0.6-0.3-0.9-0.3-1.4,0.3c-0.7,0.7-1.1,1.6-1.4,2.5
			c-0.9,2.3-1.3,4.7-1.1,7.2c0.1,1,0.3,2,0.4,2.7c0.6,1.5,1.1,2.8,2.1,3.7c0.2,0.2,0.4,0.3,0.6,0.5c1.1,0.7,2.2,0.5,3.1-0.3
			c0.8-0.8,1.2-1.8,1.4-2.8c0.4-1.9,0.3-3.9-0.1-5.8C124.9,306.7,124.4,305,123.8,303.2z"/>
	</g>
	<path class="st0" d="M219.4,126.9c0.1-5,0.2-9.9,0.3-14.9c-0.3,0-0.5,0-0.6,0.1c-2.4,0.6-4.9,0.9-7.4,0.9c-1.9,0-3.8-0.1-5.7-0.3
		c-3.9-0.3-7.8-1-11.6-1.9c-1.3-0.3-2.6-0.8-3.9-1.2c-0.1,0-0.3-0.1-0.4-0.2c-1.6-0.9-2-1.7-1.5-3.5c1-3.8,2.5-7.5,4.2-11.1
		c1.7-3.3,3.5-6.5,5.6-9.6c2-2.9,4.2-5.6,6.6-8.2c2.9-3.1,6-5.9,9.3-8.5c1.1-0.9,2.3-1.6,3.4-2.4c0.3-0.2,0.7-0.4,1.1-0.5
		c0.5-0.2,1-0.2,1.3-0.6c0.1-0.1,0.4-0.2,0.7-0.2c0.6,0,1.3,0.1,1.8,0.4c2.3,1.1,4.7,2.3,7,3.5c4.8,2.6,9,5.9,12.7,9.8
		c2.3,2.4,4.3,5,6.1,7.7c1.4,2.1,2.6,4.3,3.6,6.5c1.2,2.7,2.3,5.5,2.9,8.5c0.4,1.9,0.7,3.8,1,5.7c0.1,0.8-0.1,1.6-0.8,2.2
		c-1.1,0.9-2.3,1.5-3.6,2c-3.1,1.1-6.2,1.7-9.5,2.1c-2.6,0.3-5.2,0.5-7.9,0.6c-2.5,0.1-5.1,0-7.6-0.4c-1.3-0.2-2.6-0.5-3.9-0.9
		c-0.2-0.1-0.4-0.1-0.7-0.2c0,0.3-0.1,0.5-0.1,0.7c0,1.8,0.1,3.7,0.1,5.5c0,1-0.1,2-0.1,3.1c-0.1,1.3-0.2,2.6-0.2,3.9
		c0,0.5-0.1,0.9-0.1,1.4c0.2,0,0.4,0.1,0.6,0.1c2.9,0.1,5.8,0.1,8.7,0.2c3,0.1,6.1,0.2,9.1,0.2c3.5,0,7.1,0,10.6,0
		c3.8,0,7.7,0,11.5-0.1c0.5,0,1,0.2,1.4,0.5c0.4,0.3,0.5,0.7,0.4,1.1c-0.2,0.7-0.3,1.3-0.6,1.9c-0.9,2.1-1.8,4.2-2.8,6.3
		c-1.2,2.4-2.5,4.8-3.9,7.1c-0.6,1.1-1.2,2.1-1.9,3.1c-0.2,0.4-0.6,0.7-0.9,1c-0.1,0.1-0.2,0.2-0.2,0.3c-0.3,0.6-0.7,0.8-1.3,0.8
		c-0.7,0-1.3,0-2,0c-4-0.1-8.1-0.1-12.1-0.2c-5.3-0.1-10.7-0.2-16-0.3c-6.2-0.1-12.3-0.2-18.5-0.3c-4-0.1-8-0.2-11.9-0.3
		c-0.2,0-0.5-0.1-0.7,0c-1.1,0.1-1.8-0.6-2.3-1.5c-0.9-1.6-1.8-3.3-2.5-4.9c-0.9-1.9-1.6-3.9-2.3-5.9c-0.9-2.4-1.8-4.7-2.6-7.1
		c-0.1-0.2-0.2-0.4-0.3-0.7c-0.2-0.5-0.1-0.8,0.3-1.2c0.4-0.5,1-0.7,1.6-0.7c1.5-0.1,3-0.1,4.5-0.1c4.8-0.1,9.7-0.1,14.5,0.1
		c3.8,0.1,7.6,0.3,11.4,0.4c1.8,0.1,3.6,0.1,5.4,0.1C219,126.9,219.2,126.9,219.4,126.9z M183.5,128.3c0.1,0.3,0.2,0.4,0.3,0.6
		c0.7,1.6,1.5,3.2,2.1,4.8c0.6,1.4,1.1,2.9,1.6,4.3c0.1,0.3,0.3,0.5,0.7,0.5c1.8,0,3.6,0,5.3,0c4.3,0,8.7,0,13,0
		c2.7,0,5.4,0.1,8.1,0.1c3.7,0.1,7.4,0.3,11.1,0.4c3.1,0.1,6.2,0.2,9.3,0.4c3,0.1,6.1,0.3,9.1,0.5c3.7,0.2,7.4,0.4,11.1,0.9
		c0.8,0.1,0.7,0,1.1-0.5c1.9-3.4,3.5-6.9,5.2-10.4c0.1-0.1,0.1-0.2,0.1-0.4c-0.2,0-0.4,0-0.6,0c-3.5,0.1-6.9,0.2-10.4,0.2
		c-7.1,0.1-14.2-0.1-21.3-0.3c-3.3-0.1-6.7-0.2-10-0.3c-3.7-0.1-7.4-0.2-11.1-0.3c-3.6-0.1-7.2-0.3-10.8-0.4
		c-1.8-0.1-3.7-0.1-5.5-0.1c-2.5,0-5,0-7.5,0C184.2,128.2,183.9,128.3,183.5,128.3z M254.9,142.7c-22.2-1.5-44.3-2.1-66.4-2.4
		c0.1,0.2,0.1,0.4,0.2,0.5c0.8,1.8,1.6,3.6,2.3,5.5c0.1,0.3,0.3,0.4,0.6,0.4c1.1,0,2.3,0,3.4,0c3.9,0,7.8,0,11.7,0
		c4.3,0,8.6,0.1,12.9,0.1c2.8,0,5.7,0.1,8.5,0.1c3.2,0,6.3,0.1,9.5,0.1c3,0,6,0,9,0.1c1.8,0,3.6,0,5.3,0.1c0.4,0,0.7-0.1,0.9-0.5
		c0.4-0.8,0.8-1.6,1.2-2.4C254.3,143.8,254.5,143.3,254.9,142.7z M222.2,108.9c0.2-0.1,0.3-0.1,0.3-0.2c1.9-1.5,3.6-3.1,5.1-4.9
		c2.5-3.3,4.4-6.8,5-11c0.4-3.1,0.3-6.2-0.6-9.2c-0.9-3.1-2.5-5.9-4.5-8.6c-1.7-2.3-3.7-4.3-5.6-6.4c-0.1-0.1-0.2-0.2-0.5-0.4
		c0.1,1.1,0.2,2.1,0.3,3.1c0.2,3.3,0.5,6.5,0.6,9.8c0.1,2.4,0,4.7,0,7.1c0,2.9,0,5.9-0.1,8.8c0,3.1,0,6.1-0.1,9.2
		C222.2,107.2,222.2,108,222.2,108.9z M219.5,108c0,0,0.1,0,0.1-0.1c0.3-12.1,0-24.2-0.6-36.3c-0.1,0.1-0.2,0.3-0.3,0.4
		c-0.7,1.8-1.3,3.6-2,5.4c-1.1,3.4-2,6.8-2.3,10.4c-0.3,3.5,0,7,0.8,10.4c0.7,3.1,1.9,6,3.6,8.7C219.1,107.4,219.3,107.7,219.5,108z
		 M224,110.3c0.1,0.1,0.2,0.1,0.2,0.1c0.2,0,0.3,0.1,0.5,0.1c2,0.4,3.9,0.7,5.9,0.7c0.6,0,1.3,0,1.9-0.1c0.6-0.1,1.1-0.5,1.7-0.8
		c1.1-0.6,2.2-1.3,3.3-2c3.1-2,6.1-4,8.9-6.4c1.5-1.3,3.1-2.5,4.4-4c0.3-0.3,0.3-0.6,0.2-0.9c-0.5-1.1-0.9-2.3-1.4-3.4
		c0-0.1-0.1-0.2-0.2-0.3c-0.2,0.2-0.3,0.3-0.5,0.5c-0.7,0.7-1.4,1.5-2.1,2.2c-1.2,1.1-2.4,2.1-3.6,3.1c-1.5,1.2-3.1,2.4-4.7,3.4
		c-1.7,1.1-3.4,2-5.2,2.9c-1.8,0.9-3.6,1.6-5.6,1.9c-0.4,0.1-0.6,0.2-0.9,0.5c-0.6,0.6-1.3,1.1-1.9,1.7
		C224.6,109.8,224.3,110.1,224,110.3z M214.4,103.9c-1.8,0.3-3.6,0.4-5.4,0.3c-2-0.2-4-0.3-5.9-0.6c-2.7-0.4-5.2-1.3-7.8-2.2
		c-0.6-0.2-1.2-0.5-1.9-0.7c-0.7,1.5-1.4,3-1.9,4.6c0.1,0.1,0.2,0.1,0.3,0.2c1,0.3,2,0.6,3,0.8c1.9,0.4,3.8,0.7,5.7,1.1
		c1.2,0.2,2.3,0.5,3.5,0.6c1.9,0.3,3.7,0.5,5.6,0.7c2.4,0.2,4.7,0.3,7.1,0.4c0.2,0,0.3,0,0.5-0.1
		C216.1,107.2,215.2,105.6,214.4,103.9z M197.4,92.8c0.3,0.3,0.6,0.5,0.9,0.7c0.5,0.3,1.1,0.7,1.7,0.9c1.5,0.6,3,1.1,4.5,1.6
		c2.3,0.8,4.6,1.3,7,1.5c0.3,0,0.5,0.1,0.8,0.1c0-0.1,0.1-0.2,0.1-0.2c-0.1-0.8-0.3-1.6-0.4-2.4c0-0.3-0.2-0.3-0.4-0.4
		c-1.4-0.6-2.9-1.1-4.3-1.7c-2.4-0.9-4.5-2.2-6.5-3.8c-0.2-0.1-0.3-0.2-0.6-0.4C199.2,90,198.3,91.4,197.4,92.8z M243.5,83.4
		c-0.1,0.1-0.2,0.1-0.2,0.2c-1.1,1.2-2.1,2.5-3.2,3.6c-1.4,1.4-2.7,2.8-4.3,3.9c-0.2,0.2-0.3,0.4-0.4,0.7c-0.2,1.8-0.5,3.5-1.1,5.2
		c0,0.1-0.1,0.3-0.1,0.5c0.2-0.1,0.3-0.2,0.5-0.3c0.8-0.6,1.6-1.3,2.4-2c1.6-1.4,3.1-2.8,4.6-4.2c1.3-1.2,2.6-2.5,3.8-3.8
		c0.4-0.4,0.4-0.5,0.1-0.9c-0.5-0.8-1.1-1.5-1.6-2.3C243.7,83.7,243.6,83.5,243.5,83.4z M211.5,87.8c0.1-0.1,0.1-0.1,0.1-0.1
		c0.2-1.1,0.3-2.3,0.5-3.4c0-0.2-0.1-0.5-0.3-0.7c-1.4-1.3-2.8-2.6-4.2-4c-0.1-0.1-0.2-0.2-0.4-0.3c-1,1.2-2,2.2-2.9,3.5
		C206.6,84.6,209,86.3,211.5,87.8z M235,84.3c1.7-1.7,3.3-3.4,4.9-5.1c-1-1.1-2.1-2.1-3.3-3c-0.1,0.1-0.2,0.1-0.3,0.2
		c-0.9,1-1.8,2-2.7,3c-0.3,0.3-0.2,0.5-0.1,0.8c0.4,1.2,0.8,2.4,1.2,3.6C234.8,83.9,234.9,84,235,84.3z M216.8,70.2
		c-2.3,1.7-4.4,3.6-6.4,5.7c1,1,1.9,1.9,3,2.9C214.3,75.8,215.5,73,216.8,70.2z M233.7,74c-1.2-1.1-7-4.7-8.3-5
		c0.7,0.8,1.4,1.6,2.1,2.4c0.7,0.8,1.4,1.6,2,2.4c0.6,0.8,1.2,1.7,1.8,2.5C232.2,75.5,233,74.8,233.7,74z M252.9,104
		c-1.1,1-2,2-3,2.9c-1,0.9-2,1.8-3.2,2.8c0.3,0,0.3,0,0.4,0c1.7-0.4,3.3-0.9,4.8-1.6c0.4-0.2,0.8-0.4,1.2-0.7
		c0.1-0.1,0.3-0.3,0.3-0.5C253.2,106,253.1,105,252.9,104z"/>
	<path class="st0" d="M112.5,215.7c0.2-1.9,0.6-3.8,1.7-5.4c1-1.6,3.1-3,5.6-1.5c0.8,0.5,1.4,1.1,2,1.8c2.2,2.6,3.8,5.6,5.1,8.8
		c0.1,0.3,0.2,0.5,0.3,0.8c0.3-0.2,0.5-0.4,0.7-0.6c0.9-0.7,1.8-1.5,2.8-2.2c1.3-0.9,2.7-1.5,4.3-1.6c1.9-0.1,3.6,0.4,4.8,1.9
		c0.9,1.1,1.3,2.4,1.4,3.8c0.3,2.9-0.5,5.5-1.9,8c-1.1,2-2.5,3.6-4.1,5.2c-0.5,0.5-1,1-1.6,1.5c0.1,0.1,0.1,0.1,0.1,0.2
		c0.9,0.8,1.2,1.8,1.1,2.9c-0.1,1.3-0.6,2.4-1.2,3.5c-0.4,0.7-1,1.4-1.7,1.8c-0.8,0.5-1.5,0.9-2.4,1.3c-2.2,0.9-4.4,1.7-6.7,2.2
		c-2.5,0.6-4.9,1-7.5,0.9c-1.6-0.1-3.2-0.4-4.5-1.2c-1.7-1.1-2.6-2.7-2.8-4.8c0-0.1,0-0.3,0-0.5c-0.1,0-0.2-0.1-0.3-0.1
		c-1.2-0.2-2.4-0.3-3.6-0.5c-1.3-0.2-2.6-0.6-3.9-1.1c-1.7-0.7-3.2-1.8-4.3-3.3c-1.4-1.9-1.9-4-1.6-6.3c0.4-2.7,1.8-4.6,4.1-5.9
		c0.5-0.3,1.1-0.5,1.7-0.8c0-0.1,0-0.2-0.1-0.3c-0.5-0.9-0.7-1.8-1-2.8c-0.4-1.6-0.6-3.2,0-4.8c0.7-2.2,2.1-3.5,4.5-3.8
		c1.2-0.1,2.3,0.1,3.4,0.5c1.6,0.6,3.1,1.5,4.4,2.6c0.3,0.3,0.7,0.5,1.1,0.9C112.5,216.4,112.5,216,112.5,215.7z M129.3,238.1
		c-0.1,0.3-0.1,0.6-0.1,0.8c-0.1,0.7-0.5,0.9-1.2,0.8c-0.7-0.1-1.4-0.3-2.1-0.5c-1.7-0.6-3,0-4.2,1.2c-0.3,0.3-0.6,0.6-0.9,0.9
		c-0.6,0.5-1.2,0.6-1.9,0.3c-0.5-0.3-1.1-0.5-1.6-0.7c-0.4-0.2-0.8-0.3-1.2-0.5c-0.9-0.2-1.7,0.1-2.2,0.8c-0.5,0.7-0.9,1.3-1.4,2
		c-0.2,0.3-0.2,0.8,0,1.1c0.2,0.3,0.7,0.4,1.1,0.2c0.3-0.2,0.6-0.4,0.9-0.7c0.3-0.4,0.7-0.8,0.9-1.2c0.2-0.3,0.5-0.5,0.8-0.3
		c0.6,0.3,1.3,0.5,1.9,0.8c1,0.5,2,0.7,3,0.3c0.7-0.3,1.4-0.7,1.9-1.2c0.3-0.3,0.6-0.5,0.9-0.8c0.4-0.3,0.8-0.5,1.3-0.4
		c0.6,0.1,1.3,0.3,1.9,0.4c0.6,0.1,1.2,0.2,1.8,0.1c1.3-0.1,2.2-0.9,2.4-2.2c0.1-0.3,0.1-0.6,0.1-0.9c0-0.7-0.4-1.1-1.1-1.1
		C129.7,237.3,129.4,237.5,129.3,238.1z M108.2,224.5c0.4,0.6,0.8,1.1,1.3,1.7c1.3,1.5,2.6,3,3.9,4.4c0.6,0.7,1.4,1.3,2.1,1.9
		c0.2,0.1,0.4,0.3,0.6,0.3c0.4,0.2,0.8,0,1.1-0.3c0.2-0.3,0.2-0.7-0.1-1c-0.1-0.2-0.3-0.3-0.5-0.4c-2.4-2.4-4.5-5-6.3-7.9
		c-0.4-0.7-0.7-1.4-1.1-2.1c-0.4-0.7-0.7-0.9-1.2-0.8c-0.5,0.1-0.7,0.5-0.8,1.3C107.1,222.6,107.6,223.6,108.2,224.5z M117.8,221.3
		c0.5,2,1.1,3.9,1.7,5.9c0.1,0.5,0.4,1,0.6,1.4c0.1,0.2,0.3,0.4,0.5,0.5c0.3,0.2,0.6,0.1,0.9-0.1c0.3-0.2,0.3-0.5,0.2-0.8
		c-0.1-0.3-0.3-0.6-0.4-1c-0.9-3.6-1.8-7.1-2.2-10.8c0-0.2-0.1-0.4-0.1-0.6c-0.1-0.4-0.4-0.6-0.8-0.6c-0.4,0-0.6,0.2-0.8,0.6
		c-0.1,0.2-0.1,0.3-0.1,0.5c-0.1,0.4-0.1,0.9-0.2,1.4C117.1,218.8,117.4,220.1,117.8,221.3z M127.9,231.4c0.3,0.2,0.6,0.1,0.9,0
		c0.3-0.2,0.6-0.4,0.8-0.7c1.2-1.3,2.4-2.6,3.5-4c0.7-0.9,1.3-2,1.9-3c0.2-0.3,0.3-0.6,0.5-0.9c0.2-0.4,0.1-0.8-0.2-1
		c-0.3-0.2-0.7-0.3-1,0c-0.4,0.3-0.8,0.7-1.1,1.2c-1.2,1.7-2.4,3.3-3.7,5c-0.5,0.7-1.1,1.4-1.6,2.1c-0.1,0.2-0.2,0.4-0.3,0.5
		C127.4,231,127.6,231.2,127.9,231.4z M110.4,237.7c0.5-0.1,0.9-0.4,0.9-0.8c0-0.5-0.3-0.9-0.9-1c-0.3-0.1-0.6-0.1-0.8-0.2
		c-1.5-0.2-2.9-0.8-4.2-1.4c-1.4-0.7-2.8-1.5-4.2-2.3c-0.3-0.1-0.5-0.4-0.7-0.5c-0.3-0.2-0.6-0.2-0.9,0c-0.2,0.2-0.4,0.5-0.2,0.9
		c0.1,0.2,0.3,0.5,0.5,0.7c2.2,1.4,4.3,2.9,6.7,4c1,0.4,2,0.7,3.3,0.8C109.8,237.7,110.1,237.7,110.4,237.7z"/>
	<path class="st4" d="M276.5,126.2c1.6,0,3,0.3,4.2,1.1c1.3,0.8,2.4,1.8,3.6,2.7c0.3,0.2,0.6,0.5,0.9,0.7c1.2,0.9,2.5,1,3.7,0.2
		c1-0.6,2-1.3,2.9-2c1.8-1.3,3.8-2.4,5.9-3.1c1-0.3,2-0.4,3.1-0.2c1.7,0.3,2.7,1.6,3.4,3c0.3,0.7,0.5,1.4,0.8,2.1
		c0.2,0.6,0.4,1.1,0.7,1.6c0.4,0.8,1.1,1.2,2,0.9c0.6-0.2,1.2-0.4,1.8-0.8c0.7-0.4,1.2-1,1.9-1.5c0.7-0.6,1.4-0.6,2.1-0.2
		c0.5,0.3,0.8,0.9,0.9,1.4c0.3,1.7-0.2,3.2-1.4,4.3c-2,1.9-4.4,2.2-6.9,1.4c-0.7-0.2-1.4-0.5-2-0.8c-1.6-0.8-2.6-2.1-3.3-3.6
		c-0.3-0.7-0.7-1.4-1.1-2.1c-0.6-1-0.8-1.1-1.8-0.5c-1.2,0.7-2.4,1.6-3.6,2.4c-2.2,1.5-4.7,2.5-7.4,2.9c-1.5,0.2-2.9-0.3-4.1-1.1
		c-1-0.6-2-1.3-3-1.9c-1.3-0.7-2.7-0.8-4.1-0.8c-1,0-1.9,0.6-2.7,1.2c-1,0.7-1.8,1.5-2.7,2.3c-0.6,0.6-1.3,1-2.1,1.3
		c-0.8,0.3-1.4,0-1.7-0.8c-0.4-1.1-0.2-2.3,0.3-3.3c0.6-1.4,1.5-2.7,2.7-3.7c1.6-1.5,3.4-2.5,5.6-2.9
		C275.6,126.2,276.1,126.2,276.5,126.2z"/>
	<path class="st4" d="M289.4,148.3c-1.9,0.1-3.9,0.1-5.8-0.4c-1.8-0.5-3.5-1.3-5.1-2.2c-0.9-0.5-1.8-0.9-2.7-1.5
		c-0.9-0.5-1.9-0.7-2.9-0.9c-0.7-0.1-1.5-0.2-2.2-0.3c-1.4-0.2-2.2-0.9-2.4-2.2c-0.1-0.5,0.1-0.9,0.4-1.3c0.8-0.9,1.8-1.4,2.9-1.9
		c1.2-0.5,2.5-0.8,3.9-0.7c2,0.1,3.6,1,5.1,2.3c0.8,0.7,1.5,1.3,2.3,2c0.2,0.2,0.5,0.3,0.7,0.5c1.2,0.7,2.4,0.8,3.6,0.2
		c1-0.5,2-1.1,3-1.7c1.7-1,3.4-2,5.4-2.4c1-0.2,1.9-0.2,2.9,0c3,0.6,4.4,3.8,2.9,6.4c-0.7,1.2-1.5,2.2-2.7,2.8c-0.9,0.4-2,0.7-3,0.9
		c-1,0.2-2.1,0.4-3.2,0.4C291.5,148.4,290.4,148.3,289.4,148.3z"/>
	<path class="st4" d="M167.2,126.2c-1.6,0-3,0.3-4.2,1.1c-1.3,0.8-2.4,1.8-3.6,2.7c-0.3,0.2-0.6,0.5-0.9,0.7c-1.2,0.9-2.5,1-3.7,0.2
		c-1-0.6-2-1.3-2.9-2c-1.8-1.3-3.8-2.4-5.9-3.1c-1-0.3-2-0.4-3.1-0.2c-1.7,0.3-2.7,1.6-3.4,3c-0.3,0.7-0.5,1.4-0.8,2.1
		c-0.2,0.6-0.4,1.1-0.7,1.6c-0.4,0.8-1.1,1.2-2,0.9c-0.6-0.2-1.2-0.4-1.8-0.8c-0.7-0.4-1.2-1-1.9-1.5c-0.7-0.6-1.4-0.6-2.1-0.2
		c-0.5,0.3-0.8,0.9-0.9,1.4c-0.3,1.7,0.2,3.2,1.4,4.3c2,1.9,4.4,2.2,6.9,1.4c0.7-0.2,1.4-0.5,2-0.8c1.6-0.8,2.6-2.1,3.3-3.6
		c0.3-0.7,0.7-1.4,1.1-2.1c0.6-1,0.8-1.1,1.8-0.5c1.2,0.7,2.4,1.6,3.6,2.4c2.2,1.5,4.7,2.5,7.4,2.9c1.5,0.2,2.9-0.3,4.1-1.1
		c1-0.6,2-1.3,3-1.9c1.3-0.7,2.7-0.8,4.1-0.8c1,0,1.9,0.6,2.7,1.2c1,0.7,1.8,1.5,2.7,2.3c0.6,0.6,1.3,1,2.1,1.3
		c0.8,0.3,1.4,0,1.7-0.8c0.4-1.1,0.2-2.3-0.3-3.3c-0.6-1.4-1.5-2.7-2.7-3.7c-1.6-1.5-3.4-2.5-5.6-2.9
		C168.1,126.2,167.6,126.2,167.2,126.2z"/>
	<path class="st4" d="M154.4,148.3c1.9,0.1,3.9,0.1,5.8-0.4c1.8-0.5,3.5-1.3,5.1-2.2c0.9-0.5,1.8-0.9,2.7-1.5
		c0.9-0.5,1.9-0.7,2.9-0.9c0.7-0.1,1.5-0.2,2.2-0.3c1.4-0.2,2.2-0.9,2.4-2.2c0.1-0.5-0.1-0.9-0.4-1.3c-0.8-0.9-1.8-1.4-2.9-1.9
		c-1.2-0.5-2.5-0.8-3.9-0.7c-2,0.1-3.6,1-5.1,2.3c-0.8,0.7-1.5,1.3-2.3,2c-0.2,0.2-0.5,0.3-0.7,0.5c-1.2,0.7-2.4,0.8-3.6,0.2
		c-1-0.5-2-1.1-3-1.7c-1.7-1-3.4-2-5.4-2.4c-1-0.2-1.9-0.2-2.9,0c-3,0.6-4.4,3.8-2.9,6.4c0.7,1.2,1.5,2.2,2.7,2.8
		c0.9,0.4,2,0.7,3,0.9c1,0.2,2.1,0.4,3.2,0.4C152.3,148.4,153.3,148.3,154.4,148.3z"/>
	<path class="st0" d="M133.6,342.8c-0.1,2.3-0.8,4.6-2.5,6.6c-3,3.3-7.2,3-9.8,0.1c-2.5-2.6-3.1-5.8-2.1-9.2
		c0.4-1.5,1.3-2.6,2.6-3.5c0.9-0.6,1.7-1.1,2.7-1.5c1.8-0.7,3.4-0.5,5,0.4C132.2,337.2,133.5,339.5,133.6,342.8z M121.8,342.7
		c0,1.3,0.6,2.3,1.2,3.4c0.6,1,1.5,1.5,2.4,2.1c0.5,0.4,1.1-0.1,1.2-0.7c0-0.4-0.2-0.7-0.5-1c-0.7-0.6-1.1-1.3-1.2-2.2
		c-0.1-0.9-0.2-1.8-0.3-2.7c0-0.3,0-0.7-0.2-1c-0.3-0.7-1.1-0.9-1.7-0.4c-0.3,0.2-0.5,0.5-0.6,0.9
		C121.9,341.6,121.9,342.2,121.8,342.7z"/>
	<path class="st0" d="M298.3,281.9c0.1-2.3,0.8-4.6,2.5-6.6c3-3.3,7.2-3,9.8-0.1c2.5,2.6,3.1,5.8,2.1,9.2c-0.4,1.5-1.3,2.6-2.6,3.5
		c-0.9,0.6-1.7,1.1-2.7,1.5c-1.8,0.7-3.4,0.5-5-0.4C299.7,287.5,298.4,285.2,298.3,281.9z M310.1,282c0-1.3-0.6-2.3-1.2-3.4
		c-0.6-1-1.5-1.5-2.4-2.1c-0.5-0.4-1.1,0.1-1.2,0.7c0,0.4,0.2,0.7,0.5,1c0.7,0.6,1.1,1.3,1.2,2.2c0.1,0.9,0.2,1.8,0.3,2.7
		c0,0.3,0,0.7,0.2,1c0.3,0.7,1.1,0.9,1.7,0.4c0.3-0.2,0.5-0.5,0.6-0.9C310,283.1,310,282.5,310.1,282z"/>
</g>
</svg>
